  0
SECTION
  2
BLOCKS
  0
ENDSEC
  0
SECTION
  2
ENTITIES
  0
LINE
  8
0
 10
-13.015
 11
-5
 20
-5
 21
-5
  0
LINE
  8
0
 10
-5
 11
-5
 20
-5
 21
-13.015
  0
LINE
  8
0
 10
-5
 11
-7
 20
-13.015
 21
-12.124
  0
LINE
  8
0
 10
-7
 11
-7.338
 20
-12.124
 21
-11.879
  0
LINE
  8
0
 10
-7.338
 11
-9.368
 20
-11.879
 21
-10.404
  0
LINE
  8
0
 10
-9.368
 11
-11.326
 20
-10.404
 21
-8.229
  0
LINE
  8
0
 10
-11.326
 11
-11.535
 20
-8.229
 21
-7.867
  0
LINE
  8
0
 10
-11.535
 11
-12.79
 20
-7.867
 21
-5.694
  0
LINE
  8
0
 10
-12.79
 11
-12.919
 20
-5.694
 21
-5.297
  0
LINE
  8
0
 10
-12.919
 11
-13.015
 20
-5.297
 21
-5
  0
LINE
  8
0
 10
-13.015
 11
-12.79
 20
5
 21
5.694
  0
LINE
  8
0
 10
-12.79
 11
-12.581
 20
5.694
 21
6.056
  0
LINE
  8
0
 10
-12.581
 11
-11.326
 20
6.056
 21
8.229
  0
LINE
  8
0
 10
-11.326
 11
-9.368
 20
8.229
 21
10.404
  0
LINE
  8
0
 10
-9.368
 11
-9.03
 20
10.404
 21
10.65
  0
LINE
  8
0
 10
-9.03
 11
-7
 20
10.65
 21
12.124
  0
LINE
  8
0
 10
-7
 11
-6.618
 20
12.124
 21
12.294
  0
LINE
  8
0
 10
-6.618
 11
-5
 20
12.294
 21
13.015
  0
LINE
  8
0
 10
-5
 11
-5
 20
13.015
 21
5
  0
LINE
  8
0
 10
-5
 11
-13.015
 20
5
 21
5
  0
LINE
  8
0
 10
5
 11
5
 20
-13.015
 21
-5
  0
LINE
  8
0
 10
5
 11
13.015
 20
-5
 21
-5
  0
LINE
  8
0
 10
13.015
 11
12.79
 20
-5
 21
-5.694
  0
LINE
  8
0
 10
12.79
 11
12.581
 20
-5.694
 21
-6.056
  0
LINE
  8
0
 10
12.581
 11
11.326
 20
-6.056
 21
-8.229
  0
LINE
  8
0
 10
11.326
 11
9.368
 20
-8.229
 21
-10.404
  0
LINE
  8
0
 10
9.368
 11
9.03
 20
-10.404
 21
-10.65
  0
LINE
  8
0
 10
9.03
 11
7
 20
-10.65
 21
-12.124
  0
LINE
  8
0
 10
7
 11
6.618
 20
-12.124
 21
-12.294
  0
LINE
  8
0
 10
6.618
 11
5
 20
-12.294
 21
-13.015
  0
LINE
  8
0
 10
5
 11
5
 20
5
 21
13.015
  0
LINE
  8
0
 10
5
 11
7
 20
13.015
 21
12.124
  0
LINE
  8
0
 10
7
 11
7.338
 20
12.124
 21
11.879
  0
LINE
  8
0
 10
7.338
 11
9.368
 20
11.879
 21
10.404
  0
LINE
  8
0
 10
9.368
 11
11.326
 20
10.404
 21
8.229
  0
LINE
  8
0
 10
11.326
 11
11.535
 20
8.229
 21
7.867
  0
LINE
  8
0
 10
11.535
 11
12.79
 20
7.867
 21
5.694
  0
LINE
  8
0
 10
12.79
 11
12.919
 20
5.694
 21
5.297
  0
LINE
  8
0
 10
12.919
 11
13.015
 20
5.297
 21
5
  0
LINE
  8
0
 10
13.015
 11
5
 20
5
 21
5
  0
ENDSEC
  0
SECTION
  2
OBJECTS
  0
DICTIONARY
  0
ENDSEC
  0
EOF
